<svg xmlns="http://www.w3.org/2000/svg" viewBox="0 0 256 256">
  <rect width="256" height="256" fill="#1e293b"/>
  <path d="M128 180c-44.2 0-80-35.8-80-80s35.8-80 80-80 80 35.8 80 80-35.8 80-80 80z" fill="#0f172a"/>
  <circle cx="128" cy="100" r="70" fill="none" stroke="#3B82F6" stroke-width="8"/>
  <circle cx="128" cy="100" r="8" fill="#3B82F6"/>
  <line x1="128" y1="100" x2="165" y2="75" stroke="#3B82F6" stroke-width="4" stroke-linecap="round"/>
  <circle cx="70" cy="100" r="4" fill="#64748b"/>
  <circle cx="90" cy="60" r="4" fill="#64748b"/>
  <circle cx="128" cy="40" r="4" fill="#64748b"/>
  <circle cx="166" cy="60" r="4" fill="#64748b"/>
  <circle cx="186" cy="100" r="4" fill="#64748b"/>
  <path d="M40 200 Q128 180 216 200" fill="none" stroke="#475569" stroke-width="6"/>
  <path d="M50 210 Q128 195 206 210" fill="none" stroke="#334155" stroke-width="4"/>
  <text x="128" y="115" font-family="Arial, sans-serif" font-size="32" font-weight="bold" fill="#3B82F6" text-anchor="middle">EP</text>
</svg>